<?xml version="1.0" standalone="no"?>
<!DOCTYPE svg PUBLIC "-//W3C//DTD SVG 20010904//EN"
 "http://www.w3.org/TR/2001/REC-SVG-20010904/DTD/svg10.dtd">
<svg version="1.0" xmlns="http://www.w3.org/2000/svg"
 width="500.000000pt" height="500.000000pt" viewBox="0 0 500.000000 500.000000"
 preserveAspectRatio="xMidYMid meet">

<g transform="translate(0.000000,500.000000) scale(0.100000,-0.100000)"
fill="#fff" stroke="none">
<path fill="#ae2012" d="M2225 4749 c-130 -17 -310 -58 -435 -99 -137 -45 -353 -145 -470
-217 -296 -182 -571 -457 -753 -753 -161 -261 -277 -599 -317 -920 -13 -109
-13 -411 0 -520 40 -321 156 -659 317 -920 182 -296 457 -571 753 -753 261
-161 599 -277 920 -317 109 -13 411 -13 520 0 321 40 659 156 920 317 296 182
571 457 753 753 161 261 277 599 317 920 13 109 13 411 0 520 -40 321 -156
659 -317 920 -182 296 -457 571 -753 753 -261 161 -599 277 -920 317 -100 12
-435 11 -535 -1z m1623 -1067 c71 -51 67 12 70 -972 l2 -885 -22 -44 c-13 -25
-36 -54 -51 -65 -28 -20 -42 -21 -537 -24 l-509 -3 6 -32 c7 -41 37 -110 63
-146 19 -27 25 -29 101 -33 74 -3 83 -6 105 -32 22 -24 25 -36 22 -90 l-3 -61
-595 0 -595 0 -3 61 c-3 54 0 66 22 90 22 26 31 29 105 32 76 4 82 6 101 33
26 36 56 105 64 147 l6 32 -504 0 -503 0 -34 23 c-19 12 -44 42 -56 67 l-23
44 0 876 c0 832 1 877 19 916 17 38 54 73 91 87 8 3 602 5 1320 4 l1305 -2 33
-23z"/>
<path d="M1176 3609 l-26 -31 0 -878 0 -878 26 -31 26 -31 1295 0 1295 0 29
29 29 29 0 882 0 882 -29 29 -29 29 -1295 0 -1295 0 -26 -31z m2614 -799 l0
-760 -1290 0 -1290 0 0 760 0 760 1290 0 1290 0 0 -760z m-1255 -856 c96 -45
35 -187 -65 -153 -68 24 -72 126 -6 155 39 17 32 17 71 -2z"/>
<path d="M1260 3510 c0 -6 34 -10 83 -10 51 0 88 -5 95 -12 7 -7 12 -38 12
-69 l0 -58 56 -25 c31 -14 60 -26 64 -26 4 0 28 18 53 40 25 22 49 40 54 40
12 0 203 -193 203 -206 0 -5 -20 -29 -44 -53 l-43 -42 22 -56 c13 -31 29 -59
36 -64 8 -5 37 -9 66 -9 68 0 73 -10 73 -150 0 -143 -4 -150 -80 -150 l-60 0
-25 -56 c-14 -31 -25 -61 -25 -67 0 -5 18 -29 40 -53 22 -24 40 -49 40 -55 0
-20 -182 -199 -202 -199 -10 0 -38 17 -60 39 l-42 39 -46 -20 c-25 -12 -52
-24 -60 -28 -10 -5 -16 -25 -18 -61 -2 -29 -8 -59 -14 -66 -7 -9 -38 -13 -94
-13 -68 0 -84 -3 -84 -15 0 -13 144 -15 1240 -15 l1240 0 0 715 0 715 -1240 0
c-820 0 -1240 -3 -1240 -10z m1669 -123 c6 -8 8 -17 4 -20 -11 -11 -621 -8
-628 3 -17 27 16 30 309 30 242 0 306 -3 315 -13z m479 -9 c3 -16 -9 -18 -137
-18 -82 0 -142 4 -146 10 -16 25 11 30 143 28 121 -3 137 -5 140 -20z m-873
-158 c0 -12 -20 -16 -109 -18 -106 -3 -136 4 -121 27 4 8 44 11 118 9 92 -2
112 -6 112 -18z m694 11 c40 -26 -7 -31 -274 -31 -267 0 -314 5 -274 31 8 5
131 9 274 9 143 0 266 -4 274 -9z m-486 -176 c-4 -16 -435 -13 -441 3 -3 10
43 12 220 10 142 -2 222 -7 221 -13z m447 0 c0 -13 -25 -15 -165 -15 -140 0
-165 2 -165 15 0 13 25 15 165 15 140 0 165 -2 165 -15z m-250 -160 c0 -13
-39 -15 -317 -13 -242 2 -317 6 -321 16 -3 9 65 12 317 12 280 0 321 -2 321
-15z m470 0 c0 -13 -18 -15 -122 -13 -86 2 -123 7 -126 16 -3 9 26 12 122 12
106 0 126 -2 126 -15z m-860 -160 c0 -13 -21 -15 -125 -15 -104 0 -125 2 -125
15 0 13 21 15 125 15 104 0 125 -2 125 -15z m640 0 c0 -13 -32 -15 -230 -15
-198 0 -230 2 -230 15 0 13 32 15 230 15 198 0 230 -2 230 -15z m-250 -160 c0
-13 -42 -15 -320 -15 -278 0 -320 2 -320 15 0 13 42 15 320 15 278 0 320 -2
320 -15z m470 0 c0 -13 -21 -15 -125 -15 -104 0 -125 2 -125 15 0 13 21 15
125 15 104 0 125 -2 125 -15z m-860 -160 c0 -13 -21 -15 -125 -15 -114 0 -137
5 -118 23 3 4 60 7 125 7 98 0 118 -3 118 -15z m640 0 c0 -13 -32 -15 -230
-15 -198 0 -230 2 -230 15 0 13 32 15 230 15 198 0 230 -2 230 -15z"/>
<path d="M1260 3263 l0 -168 57 -2 c106 -5 201 -71 245 -171 25 -56 27 -162 4
-216 -43 -102 -140 -174 -248 -184 l-58 -5 0 -163 0 -164 60 0 60 0 0 44 c0
53 27 92 73 101 17 4 53 18 79 31 26 13 52 24 58 24 5 0 28 -16 49 -35 l39
-36 57 55 57 55 -31 33 c-44 47 -47 69 -18 136 14 31 28 68 32 82 12 42 25 50
81 50 l54 0 0 80 0 80 -39 0 c-71 0 -87 12 -110 83 -12 35 -28 73 -36 83 -23
30 -18 47 25 89 l40 39 -56 57 -56 57 -45 -34 c-24 -19 -50 -34 -58 -34 -7 0
-41 13 -76 29 -35 15 -76 33 -91 39 -26 11 -28 15 -28 72 l0 60 -60 0 -60 0 0
-167z"/>
<path d="M1260 2810 l0 -240 48 0 c84 1 168 56 208 138 25 49 25 153 0 204
-40 82 -129 138 -218 138 l-38 0 0 -240z"/>
<path d="M2466 1914 c-9 -8 -16 -24 -16 -34 0 -10 7 -26 16 -34 8 -9 24 -16
34 -16 43 0 65 54 34 84 -8 9 -24 16 -34 16 -10 0 -26 -7 -34 -16z"/>
<path d="M2237 1650 c-3 -22 -19 -69 -36 -105 l-30 -65 329 0 329 0 -30 65
c-17 36 -33 83 -36 105 l-6 40 -257 0 -257 0 -6 -40z"/>
<path d="M1977 1403 c-4 -3 -7 -15 -7 -25 0 -17 23 -18 531 -18 l530 0 -3 23
-3 22 -521 3 c-286 1 -524 -1 -527 -5z"/>
</g>
</svg>
